<?xml version="1.0" encoding="utf-8"?>
<!-- Generator: Adobe Illustrator 19.2.1, SVG Export Plug-In . SVG Version: 6.00 Build 0)  -->
<svg version="1.1" id="layer" xmlns="http://www.w3.org/2000/svg" xmlns:xlink="http://www.w3.org/1999/xlink" x="0px" y="0px"
	 viewBox="0 0 652 652" style="enable-background:new 0 0 652 652;" xml:space="preserve">
<style type="text/css">
	.st0{fill:#003946;}
	.st1{fill:#EAAB00;}
</style>
<path class="st0" d="M247.5,312.6c-1.6-6.4-4-19-17.7-19c-7.1,0-12.6,4.7-12.6,12.6c0,19.3,40.1,18,40.1,44.9
	c0,17.8-15.8,24.3-30.8,24.3c-10.9,0-18-2.9-22.1-5c-3-7.9-3.6-13.5-3.6-23.6l5.9-1.3c1.7,7.5,5.9,25.1,21.9,25.1
	c7.9,0,13.1-5.5,13.1-13.9c0-21.2-38.8-19.5-38.8-45.2c0-15.9,11.8-22.5,27.9-22.5c9.4,0,15,2,19.7,4.7c1,6.2,1.4,12.8,1.4,19.2
	h-4.4V312.6z M307.9,368.8c-3.8,2.3-9.6,6.4-19,6.4c-19.4,0-20.3-11.3-20.3-25.2v-18.2c0-4.4,0-10-3.8-10c-1.9,0-3.5,0.6-4,0.7v-3.6
	c9.4-3.2,16.3-4.1,22.8-4.5v35.2c0,9.9,1.9,18.3,14.2,18.3c4.7,0,7.7-2.3,9.4-3.2v-33c0-4.4,0-10-3.8-10c-1.9,0-3.5,0.6-4,0.7v-3.6
	c9.4-3.2,16.3-4.1,22.8-4.5v37.5c0,10.3,0,15.2,4.3,15.2c0.7,0,2.3,0.1,3.5-0.1l0.2,3.2c-5.8,2-12.6,3.8-18.9,5L307.9,368.8z
	 M342.2,331.8c0-4.4,0-10-3.8-10c-1.9,0-3.5,0.6-4,0.7v-3.6c9.4-3.2,16-4.1,22.5-4.5v7.3c3.2-2.8,9.2-7.3,19.8-7.3
	c11.3,0,18.9,5.4,18.9,22.3v24.7c0,6.6,0.6,8,5.1,8.4l2.6,0.2v3.2h-30.6V370l2.6-0.2c4.5-0.4,5.1-1.7,5.1-8.4v-17.8
	c0-9.9,0-21.9-13-21.9c-5.1,0-8.4,2.6-10.4,4.7v34.9c0,6.6,0.6,8,5.1,8.4l2.6,0.2v3.2h-30.3V370l2.6-0.2c4.3-0.4,4.9-1.7,4.9-8.4
	v-29.5H342.2z M426.2,370.1l3-0.4c5.9-1.1,5.9-0.6,5.9-14.9v-46c0-12.2,0-13.7-5.9-14.5l-3-0.4v-3.2h34.1v3.2l-3,0.4
	c-5.9,0.9-5.9,2.4-5.9,14.5v58c3.8,0.9,7.7,1.7,11.5,1.7c17.7,0,17.8-8.5,21.4-18.9l4.5,0.9c-0.8,8.1-1.6,14.8-4.4,22.8h-58.3V370.1
	z M491.8,370.1l2.6-0.2c4.5-0.5,5.1-1.7,5.1-8.4v-29.6c0-4.4,0-10-3.8-10c-1.9,0-3.5,0.6-4,0.7V319c9.4-3.2,16.3-4.1,22.8-4.5v47
	c0,6.6,0.6,7.9,5.1,8.4l2.6,0.2v3.2h-30.6L491.8,370.1L491.8,370.1z M497.4,295.2c0-4.7,3.8-8.6,8.8-8.6c4.7,0,8.8,3.9,8.8,8.6
	c0,5.3-4,8.9-8.8,8.9C501.2,304,497.4,300.3,497.4,295.2z M535.1,316.3c0-17.4,8.6-35.1,28.3-35.1c6.6,0,10.9,2,13.7,4.1
	c-0.9,3.9-1.9,6.3-5,9.4h-0.9c-2.4-2.3-8.1-7.3-13-7.3c-7.5,0-8,10.1-8,21.7v7.1c3.8,0.1,11.4,0.6,15.6,1.1v3.2
	c-5.4,0.6-10.3,1-15.6,1.3v39.5c0,6.6,0.6,8,5.3,8.4l5,0.2v3.2h-33.1V370l2.5-0.2c4.7-0.5,5.3-1.7,5.3-8.4v-39.5L535.1,316.3
	L535.1,316.3z M620.7,367.2c-3.2,2.6-11.1,8-23.8,8c-14.8,0-29.3-9.4-29.3-29.6c0-19.9,14.4-31.2,28.7-31.2
	c20.2,0,23.4,13.1,24.8,20.4c-10.8,5-24.7,9-37.7,12c1.4,7.5,5.1,21,22.3,21c6.8,0,12-2.8,13.8-3.6L620.7,367.2z M606,335.6
	c-0.9-9-4.7-16.4-12.6-16.4c-10.9,0-10.9,19.5-10.9,21.8C590.5,339.7,598.4,338.1,606,335.6z"/>
<path class="st1" d="M101.9,260.1c-0.2-2.1-0.3-4.4-0.1-6.5c0.1-1,0.3-2.1,0.5-3.1c0-0.2,0.1-0.7,0.2-1.2c0.1-0.4-0.3-0.7-0.7-0.5
	c-3,2.4-5.6,5.7-7.5,9c-1.6,2.7-2.8,5.8-3.1,9c4,0.5,7.9,1.3,11.7,2.5C103.1,266.2,102.2,263.2,101.9,260.1z M73.9,267.1
	c3.5-0.6,7.1-0.8,10.7-0.8c-0.1-0.5-0.2-1-0.3-1.4c-0.4-1.5-1.3-2.9-1.9-4.3c-0.7-1.6-1.4-3.2-1.8-4.8c-0.4-1.3-0.7-2.5-0.8-3.8
	c-0.1-0.7-0.1-1.5-0.1-2.2c0-0.1,0-0.4,0-0.7c0-0.4-0.4-0.6-0.7-0.3c-1.8,2.4-3.1,5.3-4.1,8.3c-0.7,2.1-1.2,4.2-1.3,6.4
	c0,1,0,1.9,0.2,2.9C73.7,266.6,73.8,266.9,73.9,267.1z M56.8,271.7c0.1,0.2,0.2,0.4,0.3,0.6c0.3-0.1,0.7-0.3,1-0.5
	c2.6-1.2,5.2-2.1,7.9-2.9c-0.1-0.3-0.3-0.7-0.5-1c-0.7-1.2-1.8-2.2-2.7-3.2c-1-1.2-1.9-2.4-2.8-3.7c-0.6-1-1.2-2-1.6-3.1
	c-0.2-0.6-0.4-1.2-0.6-1.8c0-0.1-0.1-0.3-0.2-0.6c-0.1-0.3-0.5-0.4-0.6,0c-1,2.5-1.4,5.3-1.5,8c0,1.9,0,3.9,0.4,5.7
	C56.2,270.1,56.5,270.9,56.8,271.7z M123.2,280.1c3.7,3,7.1,6.3,10.1,10.1c2.2-3,3.4-6.5,5.1-9.8c1.2-2.3,2.6-4.6,4.3-6.5
	c0.8-1,1.6-1.9,2.6-2.7c0.2-0.2,0.6-0.6,1.1-1c0.4-0.3,0.1-1-0.3-0.9c-4.6,0.4-9.4,1.8-13.5,3.8C129,274.8,125.7,277.1,123.2,280.1z
	 M141.7,304.2c0.3,0.7,0.6,1.5,0.9,2.2c3.3-2.5,5.6-6.1,8.4-9c1.9-2.1,4-4,6.3-5.7c1.1-0.8,2.3-1.5,3.5-2.1c0.3-0.1,0.8-0.4,1.4-0.7
	c0.5-0.2,0.4-1-0.1-1.1c-4.9-0.8-10.3-0.7-15.2,0.2c-4.1,0.7-8.2,2.3-11.6,4.7C137.7,296.3,139.9,300.1,141.7,304.2z M121.7,267.5
	c0.5-2.3,1.1-4.7,2-6.9c0.4-1.1,1-2.1,1.6-3.1c0.1-0.2,0.4-0.7,0.7-1.1c0.2-0.4-0.1-0.9-0.5-0.7c-3.9,1.6-7.8,4.1-10.9,6.9
	c-2.7,2.4-5,5.3-6.3,8.7c4,1.7,7.9,3.8,11.5,6.3C120.9,274.4,121,270.8,121.7,267.5z M157.5,329.5c-3.3-1.3-6.9-2.1-10.5-1.8
	c0.1,4.4-0.2,8.8-0.9,13.1c3.5-0.3,6.8-1.8,10.2-2.7c2.3-0.6,4.7-1.1,7.1-1.2c1.2,0,2.3,0,3.4,0c0.2,0,0.8,0,1.3,0.1
	c0.5,0,0.7-0.5,0.4-0.8C165.4,333.4,161.4,331.1,157.5,329.5z M168.9,311.8c-4.1-2-9-3.2-13.5-3.7c-3.9-0.4-7.9-0.1-11.7,1.3
	c1.6,4.6,2.6,9.3,3.1,14c3.6-1.4,6.6-3.9,9.9-5.9c2.2-1.4,4.6-2.5,7.1-3.4c1.2-0.4,2.4-0.7,3.6-1c0.3,0,0.8-0.2,1.4-0.3
	C169.2,312.7,169.4,312,168.9,311.8z M125.4,377.4c-2.4,2.1-4.9,4-7.6,5.7c1.8,1.8,4.1,2.9,6.2,4.3c1.4,1,2.8,2.1,4,3.4
	c0.6,0.6,1.1,1.3,1.6,1.9c0.1,0.1,0.3,0.4,0.5,0.8c0.2,0.3,0.6,0.2,0.6-0.1c0.1-3.1-0.4-6.3-1.4-9.3
	C128.5,381.7,127.3,379.3,125.4,377.4z M137.5,363.2c-1.9,3.1-4.1,5.9-6.4,8.6c2.6,1.4,5.4,1.7,8.1,2.7c1.8,0.6,3.7,1.3,5.4,2.3
	c0.8,0.5,1.6,1,2.3,1.6c0.1,0.1,0.5,0.4,0.9,0.6c0.3,0.2,0.7,0,0.6-0.4c-0.9-3.3-2.6-6.7-4.6-9.5C142.1,366.8,140,364.7,137.5,363.2
	z M153.5,350.5c-2.5-2-5.5-3.6-8.6-4.4c-1,3.9-2.4,7.6-4.2,11.2c3.2,0.7,6.3,0.2,9.5,0.3c2.2,0,4.4,0.3,6.5,0.8c1,0.2,2,0.6,3,1
	c0.2,0.1,0.7,0.2,1.1,0.4c0.4,0.1,0.8-0.2,0.6-0.6C159.4,355.9,156.5,352.9,153.5,350.5z M71.5,381c-10.2,1.3-19.7,0.3-27.2-2.8
	c3.3,2.7,6.9,5.1,10.8,7.1c9.2,4.7,19.6,7.3,30.6,7c4.7-0.1,9.3-0.8,13.6-1.8c-7.4-0.8-14.4-2.9-21-5.9
	C76,383.5,73.7,382.3,71.5,381z M126.7,355.1c0,0,0.3-0.4,0-0.8c-0.3-0.3-0.7,0-0.7,0c-6.1,6-13.5,11.5-22.1,16.1
	c-1.6,0.9-3.2,1.7-4.9,2.4c-7.1,3.3-14.3,5.7-21.2,7.1c2,1.2,4.2,2.2,6.3,3.2c6.4,2.9,13.4,4.7,20.6,5.7c2.9-1,5.6-2.2,8.3-3.6
	c-3.9-2.9-7.5-6.1-11-9.4C112.6,370.2,121.1,362.8,126.7,355.1z M28,343.3c0.5,0.2,1,0.5,1.5,0.8c1.9,0.9,4,1.6,6.3,2
	c1.9,0.4,4,0.7,6.3,0.8c-0.9-2.1-1.7-4.3-2.4-6.5c-1.1-3.4-1.9-7-2.5-10.6c-0.2-1.2-0.3-2.4-0.5-3.6c-0.1-1-0.2-2-0.2-3.1
	c0-0.5,0-1.1,0-1.6c-0.1-2.1-0.1-4.2,0-6.2c-2.5-0.3-4.6-1-6.3-1.9c-0.2-0.1-0.4-0.2-0.6-0.4c-1.1-0.7-2.1-1.5-2.8-2.4
	c-0.4-0.5-0.7-1-1-1.6c-0.2-0.5-0.4-1.1-0.6-1.6c-0.9,2.5-1.7,5-2.3,7.7c-0.2,1-0.5,2.1-0.6,3.2c-0.4,2.1-0.7,4.3-0.8,6.4
	c0,0.5,0,1.1-0.1,1.6c-0.1,1.6-0.1,3.2-0.1,4.8c0,2.1,0.2,4.2,0.5,6.2C23,339.7,25.2,341.7,28,343.3z M46.4,315.2
	c-1.6,0.1-3.2,0.2-4.7,0.2c0,1.5,0,2.9,0.1,4.4v0c0,0.5,0.1,1,0.1,1.5c0,0.8,0.1,1.6,0.2,2.5c0.4,3.9,1.1,7.7,2,11.3
	c1,4.1,2.4,8,4,11.7c8.3-0.3,17.9-2.4,27.7-6.1c-3.9-7.1-7.2-14.2-10-21.1c-0.5-1.2-1-2.5-1.5-3.7c1.8-0.7,3.6-1.5,5.5-2.4
	c11.5-5.5,20.6-12.6,25.9-19.6c0.3-0.5,0.6-0.9,1-1.4c0,0,0.3-0.5,0-0.9c-0.3-0.3-0.8,0-0.8,0c-1,1-2,1.9-3.2,2.9
	c-5.3,4.5-12,8.8-19.7,12.5c-3.5,1.6-7,3-10.4,4.2c-3.4,1.2-6.7,2.1-9.8,2.8C50.5,314.6,48.4,315,46.4,315.2z M29.8,306.6
	c0.9,0.9,2.1,1.6,3.5,2.1c0.4,0.1,0.8,0.3,1.2,0.4c0.7,0.2,1.6,0.4,2.4,0.6c0.1-1,0.2-1.9,0.4-2.9c0.1-0.8,0.2-1.5,0.4-2.3
	c0.5-2.5,1.1-5,1.8-7.4c1.6-5.2,3.6-10.1,6.2-14.8c0.7-1.4,1.4-2.7,2.2-3.9c0.2-0.3,0.4-0.7,0.7-1.1c-1.9,1.3-3.7,2.7-5.4,4.1
	c-2.6,2.2-5,4.7-7.3,7.3c-3.3,4-6.2,8.3-8.5,13.1c0.1,0.8,0.3,1.6,0.6,2.3C28.4,305.1,29,305.9,29.8,306.6z M43.2,300
	c-0.2,0.9-0.3,1.9-0.5,2.8c-0.4,2.4-0.7,4.8-0.8,7.3c3.6,0,7.7-0.4,12.1-1.4c2.3-0.5,4.7-1.2,7.1-1.9c-0.3-0.8-0.5-1.6-0.8-2.4
	c-1.2-3.5-2.1-6.8-3-9.9c-0.3-1.1-0.6-2.1-0.9-3.2c-0.5-1.7-0.9-3.4-1.3-4.9c-0.8-3.1-1.4-5.8-1.8-8.1c-0.2-1-0.4-1.9-0.5-2.7
	c0-0.2-0.1-0.4-0.1-0.6c-0.2,0.3-0.4,0.6-0.6,0.9c-0.7,1.3-1.4,2.6-2,3.9c-2,4.2-3.7,8.5-5,13C44.2,295.3,43.7,297.6,43.2,300z
	 M65.4,376.8c-6.7-5.1-12.6-11.4-17.2-18.5c-1.2-1.8-2.3-3.7-3.3-5.6c-4.3,0-8.1-0.5-11.5-1.5c-1.8-0.5-3.5-1.2-5.1-2
	c-0.5-0.2-0.9-0.5-1.4-0.8c-1.5-0.9-2.8-2-3.8-3.2c0.8,3,1.8,6,3,8.8c0.2,0.4,0.4,0.9,0.6,1.4c0.7,1.6,1.5,3.1,2.3,4.5
	c0.7,1.3,1.5,2.6,2.3,3.8c1.4,2.1,2.9,4.2,4.6,6.1C42.6,375.3,53.2,377.7,65.4,376.8z M87.5,341.7c-3,1.5-6,2.8-8.9,3.9
	c-9.8,3.9-19.3,6.2-27.7,6.9c1,1.8,2.1,3.6,3.2,5.3c4.8,7.2,10.8,13.4,17.6,18.3c7.6-1.2,15.8-3.5,23.9-7c-5.4-6-10.1-12.5-14.3-19
	c1.6-0.7,3.3-1.5,4.9-2.3c15.1-7.5,26.7-17.5,33-27.5c0,0,0.3-0.5,0-0.8c-0.4-0.4-0.8,0-0.8,0C110.8,327.6,100.1,335.5,87.5,341.7z"
	/>
</svg>
